<svg xmlns="http://www.w3.org/2000/svg" xmlns:xlink="http://www.w3.org/1999/xlink" viewBox="0,0,256,256" width="500px" height="500px" fill-rule="nonzero"><g fill="#272727" fill-rule="nonzero" stroke="none" stroke-width="1" stroke-linecap="butt" stroke-linejoin="miter" stroke-miterlimit="10" stroke-dasharray="" stroke-dashoffset="0" font-family="none" font-weight="none" font-size="none" text-anchor="none" style="mix-blend-mode: normal"><g transform="scale(5.12,5.12)"><path d="M6,4c-1.1,0 -2,0.9 -2,2v38c0,1.1 0.9,2 2,2h38c1.1,0 2,-0.9 2,-2v-38c0,-1.1 -0.9,-2 -2,-2zM19.58594,14c1.983,0 3.67883,0.47841 4.79883,1.56641c1.023,1.024 1.56641,2.59347 1.56641,4.48047c0,1.984 -0.47755,3.32802 -1.31055,4.41602c-1.152,1.6 -3.16789,2.39844 -5.08789,2.39844c-0.416,0 -0.73589,-0.00025 -1.08789,-0.03125v9.16992h-2.46484v-21.58398c0.992,-0.256 2.14594,-0.41602 3.58594,-0.41602zM19.97656,15.64063c-0.576,0 -1.05695,0.06316 -1.37695,0.16016v8.60742c0.288,0.031 0.57619,0.0625 0.99219,0.0625c2.399,0 4.03125,-1.60063 4.03125,-4.64062c0,-2.208 -0.89548,-4.18945 -3.64648,-4.18945zM34.48828,19.75c0.192,0 0.35172,-0.00075 0.51172,0.03125v2.34375c-0.16,-0.032 -0.31872,-0.03125 -0.51172,-0.03125c-1.564,0 -2.61414,1.45605 -2.86914,3.24805c-0.064,0.416 -0.0957,0.8642 -0.0957,1.4082l-0.0293,9.25h-2.49414v-16h2.49414v2.25l0.125,-0.375c0.511,-1.473 1.43214,-2.125 2.86914,-2.125z"></path></g></g></svg>